<svg width="110" height="77" viewBox="0 0 110 77" fill="none" xmlns="http://www.w3.org/2000/svg">
<path d="M2 1H108V-1H2V1ZM109 2V75H111V2H109ZM108 76H2V78H108V76ZM1 75V2H-1V75H1ZM2 76C1.44771 76 1 75.5523 1 75H-1C-1 76.6569 0.343143 78 2 78V76ZM109 75C109 75.5523 108.552 76 108 76V78C109.657 78 111 76.6569 111 75H109ZM108 1C108.552 1 109 1.44771 109 2H111C111 0.343147 109.657 -1 108 -1V1ZM2 -1C0.343145 -1 -1 0.343147 -1 2H1C1 1.44772 1.44772 1 2 1V-1Z" fill="black" fill-opacity="0.1"/>
<path d="M25.9679 35.382C26.3039 34.346 26.6539 33.114 27.0179 31.686C27.4099 30.23 27.8159 28.522 28.2359 26.562L31.0499 13.584H36.9719L34.1999 26.688C33.5279 29.908 32.8979 32.484 32.3099 34.416C31.7219 36.348 31.0779 37.958 30.3779 39.246C29.2579 41.374 27.8439 42.914 26.1359 43.866C24.4279 44.818 22.2579 45.294 19.6259 45.294C16.8259 45.294 14.7679 44.762 13.4519 43.698C12.1639 42.634 11.5199 40.94 11.5199 38.616C11.5199 37.608 11.6179 36.418 11.8139 35.046C12.0379 33.674 12.3879 31.994 12.8639 30.006C13.1159 28.914 13.4939 27.374 13.9979 25.386C14.5019 23.398 14.8239 22.096 14.9639 21.48L16.3499 15.936C13.9979 16.552 12.1639 17.714 10.8479 19.422C9.55992 21.102 8.91592 23.16 8.91592 25.596C8.91592 26.156 8.94392 26.646 8.99992 27.066C9.08392 27.458 9.20992 27.822 9.37792 28.158C9.43392 28.27 9.46192 28.354 9.46192 28.41C9.48992 28.438 9.50392 28.466 9.50392 28.494C7.99192 28.494 6.85792 28.172 6.10192 27.528C5.37392 26.884 5.00992 25.918 5.00992 24.63C5.00992 23.09 5.51392 21.592 6.52192 20.136C7.52992 18.652 8.94392 17.364 10.7639 16.272C12.2479 15.376 13.8579 14.69 15.5939 14.214C17.3579 13.738 19.1219 13.5 20.8859 13.5C21.2499 13.5 21.5579 13.514 21.8099 13.542C22.0899 13.57 22.4539 13.626 22.9019 13.71C22.4259 15.446 21.8239 17.616 21.0959 20.22C20.3959 22.824 19.9339 24.574 19.7099 25.47C18.7299 29.11 18.0719 31.756 17.7359 33.408C17.3999 35.032 17.2319 36.362 17.2319 37.398C17.2319 38.686 17.4699 39.638 17.9459 40.254C18.4219 40.87 19.1499 41.178 20.1299 41.178C21.7819 41.178 22.9859 40.758 23.7419 39.918C24.5259 39.05 25.2679 37.538 25.9679 35.382ZM34.3184 40.212C34.3184 39.848 34.3464 39.442 34.4024 38.994C34.4584 38.518 34.5424 38.014 34.6544 37.482L39.1484 16.44L45.3644 15.6L40.5344 38.28C40.4784 38.532 40.4364 38.77 40.4084 38.994C40.3804 39.19 40.3664 39.4 40.3664 39.624C40.3664 40.184 40.4924 40.59 40.7444 40.842C41.0244 41.066 41.4724 41.178 42.0884 41.178C42.8724 41.178 43.6144 40.842 44.3144 40.17C45.0144 39.47 45.5324 38.574 45.8684 37.482H47.6324C46.7364 40.03 45.5324 41.962 44.0204 43.278C42.5084 44.594 40.7724 45.252 38.8124 45.252C37.4124 45.252 36.3064 44.818 35.4944 43.95C34.7104 43.054 34.3184 41.808 34.3184 40.212ZM46.9016 24H48.2876L49.5476 18.204L55.7636 17.364L54.3356 24H56.8556L56.5196 25.68H53.9996L51.3116 38.28C51.2556 38.532 51.2136 38.77 51.1856 38.994C51.1576 39.19 51.1436 39.4 51.1436 39.624C51.1436 40.184 51.2696 40.59 51.5216 40.842C51.8016 41.066 52.2496 41.178 52.8656 41.178C53.6496 41.178 54.3916 40.842 55.0916 40.17C55.7916 39.47 56.3096 38.574 56.6456 37.482H58.4096C57.5136 40.03 56.3096 41.962 54.7976 43.278C53.2856 44.594 51.5496 45.252 49.5896 45.252C48.1896 45.252 47.0836 44.818 46.2716 43.95C45.4876 43.054 45.0956 41.808 45.0956 40.212C45.0956 39.848 45.1236 39.442 45.1796 38.994C45.2356 38.518 45.3196 38.014 45.4316 37.482L47.9516 25.68H46.5656L46.9016 24ZM60.6609 45H54.6129L59.0649 24H65.1129L64.5669 26.604C65.7989 25.568 66.7649 24.882 67.4649 24.546C68.1929 24.182 68.9209 24 69.6489 24C70.5169 24 71.2169 24.308 71.7489 24.924C72.2809 25.512 72.5469 26.254 72.5469 27.15C72.5469 28.018 72.2669 28.746 71.7069 29.334C71.1469 29.922 70.4189 30.216 69.5229 30.216C69.0469 30.216 68.6689 30.104 68.3889 29.88C68.1369 29.656 67.9549 29.194 67.8429 28.494C67.7589 28.046 67.6609 27.766 67.5489 27.654C67.4369 27.514 67.2829 27.444 67.0869 27.444C66.6109 27.444 66.1629 27.542 65.7429 27.738C65.3229 27.934 64.7489 28.368 64.0209 29.04L60.6609 45ZM84.5327 25.932V26.226L84.9947 24H91.0427L88.0187 38.28C87.9627 38.532 87.9207 38.77 87.8927 38.994C87.8647 39.19 87.8507 39.4 87.8507 39.624C87.8507 40.24 87.9907 40.702 88.2707 41.01C88.5507 41.29 88.9847 41.43 89.5727 41.43C90.3007 41.43 90.9587 41.094 91.5467 40.422C92.1347 39.722 92.6107 38.742 92.9747 37.482H94.7387C93.8427 40.058 92.6807 42.004 91.2527 43.32C89.8247 44.608 88.1727 45.252 86.2967 45.252C85.0927 45.252 84.1267 44.916 83.3987 44.244C82.6987 43.572 82.2927 42.62 82.1807 41.388C81.3127 42.676 80.3467 43.642 79.2827 44.286C78.2467 44.93 77.1267 45.252 75.9227 45.252C74.1867 45.252 72.8147 44.664 71.8067 43.488C70.8267 42.312 70.3367 40.646 70.3367 38.49C70.3367 36.922 70.5747 35.284 71.0507 33.576C71.5267 31.868 72.1847 30.314 73.0247 28.914C74.0607 27.262 75.2647 26.002 76.6367 25.134C78.0087 24.238 79.5067 23.79 81.1307 23.79C82.2227 23.79 83.0627 23.986 83.6507 24.378C84.2387 24.742 84.5327 25.26 84.5327 25.932ZM84.1547 27.99C84.1547 27.57 84.0007 27.206 83.6927 26.898C83.3847 26.562 82.9647 26.394 82.4327 26.394C80.8927 26.394 79.5207 27.682 78.3167 30.258C77.1407 32.834 76.5527 35.382 76.5527 37.902C76.5527 38.994 76.7067 39.82 77.0147 40.38C77.3227 40.912 77.8687 41.178 78.6527 41.178C79.3807 41.178 80.0807 40.828 80.7527 40.128C81.4527 39.428 81.9147 38.546 82.1387 37.482L84.1547 27.99Z" fill="black"/>
<path d="M8.00001 26.5C17.5 31 17.5 23.5 20.5 14.5C23.5 5.5 85.5 -1.90735e-06 96 21C106.5 42 85.5 53 85.5 53C85.5 53 56 69.659 56 56.5C56 43.341 79 60.5 53 71" stroke="black" stroke-width="3"/>
</svg>
